<?xml version="1.0" encoding="UTF-8" standalone="no"?>
<svg
   xmlns:dc="http://purl.org/dc/elements/1.1/"
   xmlns:cc="http://creativecommons.org/ns#"
   xmlns:rdf="http://www.w3.org/1999/02/22-rdf-syntax-ns#"
   xmlns:svg="http://www.w3.org/2000/svg"
   xmlns="http://www.w3.org/2000/svg"
   xmlns:sodipodi="http://sodipodi.sourceforge.net/DTD/sodipodi-0.dtd"
   xmlns:inkscape="http://www.inkscape.org/namespaces/inkscape"
   version="1.1"
   id="Layer_1"
   x="0px"
   y="0px"
   viewBox="0 0 512 512"
   style="enable-background:new 0 0 512 512;"
   xml:space="preserve"
   fill="#ffffff"
   sodipodi:docname="qr-code-svgrepo-com.svg"
   inkscape:version="1.0.1 (c497b03c, 2020-09-10)"><metadata
   id="metadata940"><rdf:RDF><cc:Work
       rdf:about=""><dc:format>image/svg+xml</dc:format><dc:type
         rdf:resource="http://purl.org/dc/dcmitype/StillImage" /></cc:Work></rdf:RDF></metadata><defs
   id="defs938" /><sodipodi:namedview
   pagecolor="#ffffff"
   bordercolor="#666666"
   borderopacity="1"
   objecttolerance="10"
   gridtolerance="10"
   guidetolerance="10"
   inkscape:pageopacity="0"
   inkscape:pageshadow="2"
   inkscape:window-width="1680"
   inkscape:window-height="1050"
   id="namedview936"
   showgrid="false"
   inkscape:zoom="1.3046875"
   inkscape:cx="253.7006"
   inkscape:cy="256"
   inkscape:window-x="0"
   inkscape:window-y="0"
   inkscape:window-maximized="0"
   inkscape:current-layer="Layer_1" />
<g
   id="g837"
   transform="matrix(0.74999999,0,0,0.74999999,64.000004,64.000004)">
	<g
   id="g835">
		<path
   d="M 0,0 V 233.739 H 233.739 V 0 Z M 200.348,200.348 H 33.391 V 33.391 h 166.957 v 166.957 z"
   id="path833" />
	</g>
</g>
<g
   id="g843"
   transform="matrix(0.74999999,0,0,0.74999999,64.000004,64.000004)">
	<g
   id="g841">
		<rect
   x="66.782997"
   y="66.782997"
   width="100.174"
   height="100.174"
   id="rect839" />
	</g>
</g>
<g
   id="g849"
   transform="matrix(0.74999999,0,0,0.74999999,64.000004,64.000004)">
	<g
   id="g847">
		<path
   d="M 278.261,0 V 233.739 H 512 V 0 Z M 478.609,200.348 H 311.652 V 33.391 h 166.957 z"
   id="path845" />
	</g>
</g>
<g
   id="g855"
   transform="matrix(0.74999999,0,0,0.74999999,64.000004,64.000004)">
	<g
   id="g853">
		<rect
   x="345.043"
   y="66.782997"
   width="100.174"
   height="100.174"
   id="rect851" />
	</g>
</g>
<g
   id="g861"
   transform="matrix(0.74999999,0,0,0.74999999,64.000004,64.000004)">
	<g
   id="g859">
		<path
   d="M 0,278.261 V 512 H 233.739 V 278.261 Z M 200.348,478.609 H 33.391 V 311.652 h 166.957 v 166.957 z"
   id="path857" />
	</g>
</g>
<g
   id="g867"
   transform="matrix(0.74999999,0,0,0.74999999,64.000004,64.000004)">
	<g
   id="g865">
		<rect
   x="66.782997"
   y="345.043"
   width="100.174"
   height="100.174"
   id="rect863" />
	</g>
</g>
<g
   id="g873"
   transform="matrix(0.74999999,0,0,0.74999999,64.000004,64.000004)">
	<g
   id="g871">
		<polygon
   points="345.043,278.261 278.261,278.261 278.261,512 345.043,512 345.043,478.609 311.652,478.609 311.652,411.826 345.043,411.826 345.043,378.435 311.652,378.435 311.652,311.652 345.043,311.652 "
   id="polygon869" />
	</g>
</g>
<g
   id="g879"
   transform="matrix(0.74999999,0,0,0.74999999,64.000004,64.000004)">
	<g
   id="g877">
		<rect
   x="478.60901"
   y="278.26099"
   width="33.390999"
   height="33.390999"
   id="rect875" />
	</g>
</g>
<g
   id="g885"
   transform="matrix(0.74999999,0,0,0.74999999,64.000004,64.000004)">
	<g
   id="g883">
		<polygon
   points="478.609,478.609 445.217,478.609 445.217,512 512,512 512,356.174 478.609,356.174 "
   id="polygon881" />
	</g>
</g>
<g
   id="g891"
   transform="matrix(0.74999999,0,0,0.74999999,64.000004,64.000004)">
	<g
   id="g889">
		<rect
   x="378.435"
   y="278.26099"
   width="66.782997"
   height="33.390999"
   id="rect887" />
	</g>
</g>
<g
   id="g897"
   transform="matrix(0.74999999,0,0,0.74999999,64.000004,64.000004)">
	<g
   id="g895">
		<polygon
   points="445.217,345.043 378.435,345.043 378.435,445.217 445.217,445.217 445.217,411.826 411.826,411.826 411.826,378.435 445.217,378.435 "
   id="polygon893" />
	</g>
</g>
<g
   id="g903"
   transform="matrix(0.74999999,0,0,0.74999999,64.000004,64.000004)">
	<g
   id="g901">
		<rect
   x="378.435"
   y="478.60901"
   width="33.390999"
   height="33.390999"
   id="rect899" />
	</g>
</g>
<g
   id="g905"
   transform="matrix(0.74999999,0,0,0.74999999,64.000004,64.000004)">
</g>
<g
   id="g907"
   transform="matrix(0.74999999,0,0,0.74999999,64.000004,64.000004)">
</g>
<g
   id="g909"
   transform="matrix(0.74999999,0,0,0.74999999,64.000004,64.000004)">
</g>
<g
   id="g911"
   transform="matrix(0.74999999,0,0,0.74999999,64.000004,64.000004)">
</g>
<g
   id="g913"
   transform="matrix(0.74999999,0,0,0.74999999,64.000004,64.000004)">
</g>
<g
   id="g915"
   transform="matrix(0.74999999,0,0,0.74999999,64.000004,64.000004)">
</g>
<g
   id="g917"
   transform="matrix(0.74999999,0,0,0.74999999,64.000004,64.000004)">
</g>
<g
   id="g919"
   transform="matrix(0.74999999,0,0,0.74999999,64.000004,64.000004)">
</g>
<g
   id="g921"
   transform="matrix(0.74999999,0,0,0.74999999,64.000004,64.000004)">
</g>
<g
   id="g923"
   transform="matrix(0.74999999,0,0,0.74999999,64.000004,64.000004)">
</g>
<g
   id="g925"
   transform="matrix(0.74999999,0,0,0.74999999,64.000004,64.000004)">
</g>
<g
   id="g927"
   transform="matrix(0.74999999,0,0,0.74999999,64.000004,64.000004)">
</g>
<g
   id="g929"
   transform="matrix(0.74999999,0,0,0.74999999,64.000004,64.000004)">
</g>
<g
   id="g931"
   transform="matrix(0.74999999,0,0,0.74999999,64.000004,64.000004)">
</g>
<g
   id="g933"
   transform="matrix(0.74999999,0,0,0.74999999,64.000004,64.000004)">
</g>
</svg>
